<?xml version="1.0" encoding="iso-8859-1"?>
<!-- Generator: Adobe Illustrator 19.0.0, SVG Export Plug-In . SVG Version: 6.00 Build 0)  -->
<svg version="1.1" id="Layer_1" xmlns="http://www.w3.org/2000/svg" xmlns:xlink="http://www.w3.org/1999/xlink" x="0px" y="0px"
	 viewBox="0 0 508 508" style="enable-background:new 0 0 508 508;" xml:space="preserve">
<circle style="fill:#FFD05B;" cx="254" cy="254" r="254"/>
<path style="fill:#324A5E;" d="M329.6,196.4H178.4c-4,0-7.2-3.2-7.2-7.2V130c0-4,3.2-7.2,7.2-7.2h151.2c4,0,7.2,3.2,7.2,7.2v59.2
	C336.8,192.8,333.6,196.4,329.6,196.4z M185.6,181.6h136.8v-44.4H185.6V181.6z"/>
<path style="fill:#F1543F;" d="M85.6,225.6v156c0,2,1.6,3.6,3.6,3.6h329.6c2,0,3.6-1.6,3.6-3.6v-156H85.6z"/>
<path style="fill:#FF7058;" d="M428,238.4H80c-2.4,0-4-2-3.6-4.4l9.2-58.4c0.4-2,2-3.2,3.6-3.2h330.4c1.6,0,3.2,1.2,3.6,3.2
	l9.2,58.4C432,236.4,430.4,238.4,428,238.4z"/>
<g>
	<path style="fill:#E6E9EE;" d="M361.2,273.6h-27.6c-2,0-4-1.6-4-4V226c0-2,1.6-4,4-4h27.6c2,0,4,1.6,4,4v43.6
		C365.2,272,363.2,273.6,361.2,273.6z"/>
	<path style="fill:#E6E9EE;" d="M174.4,273.6h-27.6c-2,0-4-1.6-4-4V226c0-2,1.6-4,4-4h27.6c2,0,4,1.6,4,4v43.6
		C178.4,272,176.8,273.6,174.4,273.6z"/>
</g>
<g>
</g>
<g>
</g>
<g>
</g>
<g>
</g>
<g>
</g>
<g>
</g>
<g>
</g>
<g>
</g>
<g>
</g>
<g>
</g>
<g>
</g>
<g>
</g>
<g>
</g>
<g>
</g>
<g>
</g>
</svg>
