<?xml version="1.0" encoding="iso-8859-1"?>
<!-- Generator: Adobe Illustrator 19.0.0, SVG Export Plug-In . SVG Version: 6.00 Build 0)  -->
<svg version="1.1" id="Layer_1" xmlns="http://www.w3.org/2000/svg" xmlns:xlink="http://www.w3.org/1999/xlink" x="0px" y="0px"
	 viewBox="0 0 512 512" style="enable-background:new 0 0 512 512;" xml:space="preserve">
<g>
	<path style="fill:#B5651E;" d="M150.517,474.195c0,0-51.922-41.434-51.922-156.423l0,0c0,0-41.041,52.705-15.793,102.675
		c19.73,39.048,15.754,47.019,15.754,47.019s-68.207-9.861-72.451,35.372h96.255C124.008,485.29,136.205,477.348,150.517,474.195z"
		/>
	<path style="fill:#B5651E;" d="M98.598,212.271c-1.319,4.12-3.234,8.232-5.994,11.858c-10.866,14.27-49.246,46.272-49.246,61.551
		c0,24.6,1.846,56.833,17.677,53.474s11.201-48.138,11.201-48.138l26.36-8.846"/>
</g>
<path style="fill:#FF9F34;" d="M319.055,452.914c-68.196-17.912-81.593-232.856-97.424-322.178S170.483,14.071,130.297,9.593
	C90.109,5.115,71.842,37.581,65.428,47.279S32.873,59.97,28.002,67.807s23.765,31.956,23.765,31.956
	c14.239-2.181,31.458-0.695,46.827,1.819l0.001,0.001l1.894,1.96c5.08,5.666,18.045,23.152,9.103,45.986
	c-10.96,27.988-10.998,53.252-10.998,168.243c0,114.99,51.921,156.423,51.922,156.423c-14.312,3.151-26.509,11.094-28.155,28.644
	h123.626l15.831-39.849c13.023,11.971,45.16,22.085,73.567,29.126c28.756,7.13,58.408,10.723,88.193,10.723h62.316
	C470.062,458.059,387.253,470.827,319.055,452.914z"/>
<path style="fill:#DA7A27;" d="M319.055,452.914c-68.196-17.912-81.593-232.856-97.424-322.178S170.483,14.071,130.297,9.593
	c-7.024-0.783-13.365-0.418-19.103,0.738c37.961,6.294,70.881,35.052,86.01,120.405c15.831,89.322,29.227,304.266,97.424,322.178
	c68.196,17.912,151.007,5.145,166.838,49.925h24.429C470.062,458.059,387.253,470.827,319.055,452.914z"/>
<g>
	<path style="fill:#FFDCAF;" d="M98.596,317.773c0,114.979,51.911,156.415,51.922,156.423c22.575-4.971,50.412,1.98,50.412,1.98
		s0.105-1.315-0.58-4.036l-1.504-4.571c-2.963-7.481-10.099-20.023-27.238-38.342c-17.878-19.109-11.869-41.101-3.815-56.055
		l-1.807-5.49c0,0-16.582-209.225-36.186-259.349c-7.452-1.986-18.715-4.707-31.206-6.751l0.001,0.001l1.894,1.96
		c5.08,5.666,18.045,23.152,9.103,45.986C98.634,177.517,98.596,202.783,98.596,317.773z"/>
	<path style="fill:#FFDCAF;" d="M148.123,474.778c-0.049,0.013-0.096,0.026-0.145,0.038
		C148.025,474.802,148.074,474.79,148.123,474.778z"/>
</g>
<path style="fill:#FF9F34;" d="M180.227,194.251c0,0,2.247,21.837-8.618,36.107c-10.866,14.27-49.246,46.272-49.246,61.551
	c0,24.599,1.846,56.833,17.677,53.474s11.201-48.138,11.201-48.138l61.43-20.615"/>
<path d="M159.454,91.246c1.502,0.932,3.17,1.375,4.816,1.375c3.066,0,6.062-1.539,7.795-4.337
	c9.335-15.064,11.158-27.195,5.417-36.054c-8.727-13.47-30.163-11.008-32.577-10.681c-5.014,0.674-8.532,5.286-7.857,10.3
	c0.674,5.014,5.281,8.532,10.302,7.857c5.444-0.732,13.322,0.272,14.756,2.487c0.81,1.247,0.677,6.292-5.614,16.443
	C153.828,82.934,155.153,88.581,159.454,91.246z"/>
<path d="M494.531,499.786c-12.492-35.331-57.229-40.047-104.593-45.042c-22.88-2.414-46.539-4.908-68.557-10.69
	c-20.617-5.416-38.463-35.798-53.043-90.303c-13.283-49.661-21.634-111.37-28.343-160.953c-1.439-10.63-2.798-20.673-4.142-30.162
	c-0.708-5.009-5.34-8.496-10.355-7.785c-5.009,0.71-8.495,5.345-7.785,10.355c1.336,9.434,2.691,19.449,4.126,30.051
	c6.779,50.098,15.217,112.444,28.801,163.231c16.636,62.192,38.253,95.978,66.087,103.289c23.366,6.136,47.729,8.706,71.29,11.19
	c34.729,3.662,65.655,6.923,80.965,20.714h-45.407c-29.077,0-58.007-3.518-85.987-10.454
	c-47.921-11.881-64.158-22.003-69.573-26.979c-2.218-2.041-5.303-2.859-8.24-2.186c-2.939,0.672-5.36,2.747-6.472,5.549
	l-13.536,34.07H134.636c1.312-2.063,3.028-3.832,5.184-5.36c3.476-2.467,7.842-4.117,12.635-5.174
	c0.031-0.006,0.062-0.012,0.093-0.02c16.288-3.556,37.533-0.202,46.16,1.938c2.602,0.652,5.363,0.127,7.547-1.435
	c2.184-1.56,3.574-4,3.801-6.676c0.366-4.308-0.84-20.935-31.76-53.984c-24.206-25.874,7.224-59.716,8.573-61.144
	c3.477-3.662,3.335-9.45-0.321-12.937c-3.663-3.492-9.46-3.353-12.951,0.308c-0.448,0.47-11.039,11.678-17.589,27.415
	c-9.301,22.344-6.22,42.703,8.91,58.874c11.888,12.707,18.519,22.256,22.217,28.884c-9.473-1.214-21.832-1.929-33.769-0.05
	c-4.979-5.065-15.625-17.446-25.29-38.915c-2.076-4.612-7.5-6.669-12.114-4.593c-4.613,2.076-6.67,7.501-4.593,12.114
	c7.834,17.401,16.329,29.606,22.802,37.419c-1.708,0.899-3.353,1.897-4.922,3.008c-7.099,5.027-11.993,11.962-14.434,20.323h-76.84
	c1.577-3.12,3.805-5.801,6.706-8.091c7.005-5.528,18.109-8.876,32.109-9.682c11.278-0.65,20.378,0.617,20.458,0.629
	c3.912,0.561,7.746-1.441,9.509-4.979c3.999-8.02-1.309-26.604-15.777-55.238c-9.215-18.238-9.658-39.206-1.319-62.319
	c0.408-1.13,0.827-2.236,1.256-3.321c1.521,16.487,4.204,32.146,8.048,46.798c0.881,3.358,1.835,6.709,2.836,9.962
	c1.213,3.938,4.837,6.467,8.753,6.467c0.893,0,1.802-0.131,2.698-0.408c4.836-1.489,7.548-6.615,6.06-11.451
	c-0.926-3.008-1.809-6.11-2.625-9.219c-5.926-22.589-8.931-47.841-8.931-75.053c0-111.851,0-138.426,10.368-164.902
	c5.897-15.058,3.998-28.106,0.032-38.009c10.696,2.527,17.954,4.782,18.143,4.842c4.831,1.516,9.971-1.163,11.489-5.987
	c1.518-4.826-1.163-9.969-5.989-11.489c-2.141-0.673-50.972-15.864-87.125-12.07c-7.531-6.723-14.494-14.31-17.095-18.568
	c2.713-1.425,7.275-3.109,10.574-4.326c9.781-3.609,19.897-7.342,24.914-14.928c0.391-0.59,0.823-1.262,1.3-2.002
	c7.369-11.433,22.698-35.226,54.913-31.634c27.673,3.083,66.417,18.218,83.33,113.636c0.788,4.442,4.651,7.563,9.009,7.563
	c0.531,0,1.069-0.046,1.61-0.142c4.982-0.883,8.305-5.637,7.421-10.618c-7.752-43.743-20.374-75.385-38.584-96.734
	C176.12,13.706,156.246,3.267,131.311,0.488C87.814-4.358,66.859,28.164,58.968,40.407c-0.432,0.673-0.826,1.283-1.181,1.819
	c-1.708,2.582-10.639,5.879-15.975,7.848C32.36,53.56,24.198,56.572,20.22,62.972c-5.983,9.625,2.813,21.093,11.144,30.006
	c6.845,7.325,14.192,13.531,14.501,13.791c2.02,1.701,4.674,2.45,7.288,2.048c12.269-1.88,27.177-0.771,40.963,1.33
	c4.166,4.775,13.844,18.43,6.946,36.042c-6.404,16.354-9.282,31.967-10.574,61.836c-0.241,0.459-0.452,0.939-0.616,1.45
	c-1.144,3.571-2.679,6.635-4.558,9.105c-3.069,4.031-9.168,10.231-15.626,16.796c-21.439,21.797-35.492,37.074-35.492,50.304
	c0,34.116,3.871,51.167,13.359,58.855c3.293,2.668,7.116,4.03,11.225,4.03c1.356,0,2.745-0.148,4.154-0.447
	c18.82-3.993,19.881-34.085,18.986-50.687l7.515-2.522c-0.004,6.317-0.004,12.941-0.004,19.891
	c-3.518,5.031-11.102,16.829-16.807,32.427c-10.188,27.855-9.497,54.603,1.999,77.355c8.334,16.495,12.085,26.796,13.763,32.904
	c-14.283-0.496-38.716,0.855-55.015,13.685c-9.671,7.612-15.185,17.981-16.389,30.814c-0.241,2.567,0.612,5.118,2.348,7.023
	c1.736,1.907,4.196,2.993,6.773,2.993h96.255h123.625c3.753,0,7.128-2.29,8.513-5.779l11.533-29.031
	c14.163,8.274,36.656,16.259,67.148,23.817C362.601,508.301,393.013,512,423.576,512h62.318c2.973,0,5.763-1.444,7.48-3.872
	C495.091,505.7,495.523,502.59,494.531,499.786z M69.322,282.331c-4.064,1.363-6.639,5.363-6.198,9.627
	c2.224,21.509-1.502,36.437-4.083,38.253c-0.021,0.002-0.039,0.006-0.056,0.009c-1.148-0.944-6.466-7.337-6.466-44.541
	c0.001-0.15,0.109-3.791,8.809-14.423c6.094-7.447,14.238-15.727,21.424-23.033c2.445-2.487,4.765-4.847,6.926-7.088
	c-0.122,10.189-0.183,21.588-0.213,34.436L69.322,282.331z"/>
<path d="M221.354,273.715c-1.609-4.797-6.802-7.379-11.6-5.771l-61.43,20.615c-4.064,1.363-6.638,5.363-6.198,9.627
	c2.069,20.005-1.072,36.168-4.082,38.252c-0.021,0.004-0.039,0.007-0.056,0.01c-1.148-0.944-6.465-7.337-6.465-44.54
	c0-0.15,0.109-3.791,8.808-14.424c6.094-7.447,14.238-15.727,21.425-23.033c7.173-7.294,13.369-13.592,17.14-18.546
	c12.912-16.958,10.55-41.554,10.442-42.594c-0.517-5.023-4.999-8.669-10.023-8.164c-5.024,0.503-8.693,4.99-8.206,10.015
	c0.018,0.183,1.687,18.51-6.792,29.645c-3.069,4.031-9.168,10.231-15.625,16.796c-21.44,21.797-35.492,37.074-35.492,50.305
	c0,34.116,3.871,51.166,13.36,58.854c3.293,2.668,7.116,4.03,11.224,4.03c1.356,0,2.745-0.148,4.154-0.447
	c11.045-2.343,17.361-13.663,18.775-33.643c0.447-6.321,0.351-12.475,0.145-17.023l54.724-18.364
	C220.38,283.704,222.964,278.512,221.354,273.715z"/>
<path d="M87.421,59.227c0,5.801,4.727,10.52,10.537,10.52s10.537-4.72,10.537-10.52s-4.727-10.52-10.537-10.52
	S87.421,53.427,87.421,59.227z"/>
<g>
</g>
<g>
</g>
<g>
</g>
<g>
</g>
<g>
</g>
<g>
</g>
<g>
</g>
<g>
</g>
<g>
</g>
<g>
</g>
<g>
</g>
<g>
</g>
<g>
</g>
<g>
</g>
<g>
</g>
</svg>
