<svg id="bold" enable-background="new 0 0 24 24" height="512" viewBox="0 0 24 24" width="512" xmlns="http://www.w3.org/2000/svg"><path d="m9.5 6c-.87 0-8.5-.084-8.5-3s7.63-3 8.5-3 8.5.084 8.5 3-7.63 3-8.5 3z"/><path d="m9.5 7.5c-2.137 0-6.278-.229-8.5-1.815v1.315c0 2.916 7.63 3 8.5 3s8.5-.084 8.5-3v-1.315c-2.222 1.586-6.363 1.815-8.5 1.815z"/><path d="m15.6 10.77c-.03.03-.06.06-.09.09l-2.8 2.94c-1.52.19-2.87.2-3.21.2-.87 0-8.5-.08-8.5-3v-1.32c2.22 1.59 6.36 1.82 8.5 1.82 1.5 0 3.98-.11 6.1-.73z"/><path d="m11.14 15.46-.38.4c-.55.58-.82 1.35-.75 2.13-.24.01-.41.01-.51.01-.87 0-8.5-.08-8.5-3v-1.32c2.22 1.59 6.36 1.82 8.5 1.82.46 0 1.02-.01 1.64-.04z"/><path d="m13 20.5v1.27c-1.64.22-3.14.23-3.5.23-.87 0-8.5-.08-8.5-3v-1.32c2.22 1.59 6.36 1.82 8.5 1.82.33 0 .71-.01 1.12-.02.629.79 1.417 1.02 2.38 1.02z"/><path d="m18.75 24h-2.5c-.689 0-1.25-.561-1.25-1.25v-4.25h-2.25c-.3 0-.571-.179-.689-.454-.119-.275-.062-.595.145-.813l4.75-5c.283-.298.805-.298 1.088 0l4.75 5c.207.217.264.537.145.813-.118.275-.389.454-.689.454h-2.25v4.25c0 .689-.561 1.25-1.25 1.25z"/></svg>