<svg enable-background="new 0 0 32 32" height="512" viewBox="0 0 32 32" width="512" xmlns="http://www.w3.org/2000/svg"><path d="m26 32h-20c-3.314 0-6-2.686-6-6v-20c0-3.314 2.686-6 6-6h20c3.314 0 6 2.686 6 6v20c0 3.314-2.686 6-6 6z" fill="#ffe6e2"/><path d="m12.833 8h-3c-1.011 0-1.833.822-1.833 1.833v12.333c0 1.012.822 1.834 1.833 1.834h3c1.011 0 1.833-.822 1.833-1.833v-12.334c.001-1.011-.822-1.833-1.833-1.833z" fill="#fc573b"/><path d="m23.841 15.633-2.333-2.167c-.146-.135-.358-.17-.54-.092-.182.079-.3.259-.3.458v1.5h-3.333c-.368 0-.667.299-.667.667s.298.667.667.667h3.333v1.5c0 .199.118.379.3.458.064.028.132.042.2.042.124 0 .246-.046.34-.133l2.333-2.167c.101-.094.159-.227.159-.366s-.058-.272-.159-.367z" fill="#fd907e"/></svg>